<?xml version="1.0" encoding="iso-8859-1"?>
<!-- Generator: Adobe Illustrator 19.0.0, SVG Export Plug-In . SVG Version: 6.00 Build 0)  -->
<svg xmlns="http://www.w3.org/2000/svg" xmlns:xlink="http://www.w3.org/1999/xlink" version="1.1" id="Capa_1" x="0px" y="0px" viewBox="0 0 490.667 490.667" style="enable-background:new 0 0 490.667 490.667;" xml:space="preserve" width="512px" height="512px">
<g>
	<g>
		<path d="M266.667,213.333H224c-5.888,0-10.667,4.779-10.667,10.667s4.779,10.667,10.667,10.667h42.667    c5.888,0,10.667-4.779,10.667-10.667S272.555,213.333,266.667,213.333z" fill="#FFFFFF"/>
	</g>
</g>
<g>
	<g>
		<path d="M138.837,192c-6.315,0.213-10.752,4.608-10.837,10.496c-0.085,5.888,4.608,10.752,10.496,10.837    c14.485,0.235,32.171,5.184,32.171,10.667c0,5.888,4.779,10.667,10.667,10.667S192,229.888,192,224    C192,193.707,144.277,192.085,138.837,192z" fill="#FFFFFF"/>
	</g>
</g>
<g>
	<g>
		<path d="M350.741,154.368c-8.853-26.923-30.443-53.205-44.992-60.501c-8.064-4.032-35.627-8.533-60.416-8.533    s-52.352,4.501-60.437,8.533c-14.528,7.296-36.117,33.6-44.971,60.523c-15.595,16.896-22.592,46.741-22.592,69.611    c0,15.936,1.472,43.115,10.667,57.003v17.664c0,11.968,9.365,21.333,21.333,21.333h21.333c11.968,0,21.333-9.365,21.333-21.333    v-7.232c12.885,3.221,32.981,7.232,53.333,7.232s40.448-4.011,53.333-7.232v7.232c0,11.968,9.365,21.333,21.333,21.333h21.333    c11.968,0,21.333-9.365,21.333-21.333v-17.664c9.195-13.888,10.667-41.067,10.667-57.003    C373.333,201.131,366.336,171.285,350.741,154.368z M344.448,269.781c-1.984,2.005-3.115,4.715-3.115,7.552v21.333H320v-21.333    c0-3.413-1.664-6.635-4.437-8.64c-1.835-1.344-4.011-2.027-6.229-2.027c-1.131,0-2.261,0.171-3.371,0.533    c-0.299,0.107-30.827,10.133-60.629,10.133s-60.331-10.027-60.629-10.112c-3.243-1.109-6.827-0.555-9.6,1.472    c-2.795,1.984-4.437,5.205-4.437,8.64v21.333h-21.333v-21.333c0-2.837-1.131-5.547-3.115-7.552    c-3.136-3.115-7.552-19.392-7.552-45.781c0-19.285,6.208-44.843,18.091-56.341c1.301-1.28,2.283-2.859,2.795-4.608    c7.104-23.787,26.645-45.952,34.859-50.069c3.968-1.835,26.731-6.315,50.923-6.315s46.955,4.48,50.88,6.293    c8.256,4.139,27.797,26.304,34.901,50.091c0.512,1.749,1.472,3.328,2.795,4.608C345.792,179.157,352,204.715,352,224    C352,250.389,347.584,266.667,344.448,269.781z" fill="#FFFFFF"/>
	</g>
</g>
<g>
	<g>
		<path d="M351.872,169.109c-0.853-5.824-6.293-9.899-12.096-9.003c-0.704,0.107-71.829,10.56-94.443,10.56    s-93.739-10.453-94.464-10.56c-5.845-0.917-11.243,3.179-12.096,9.003s3.179,11.264,9.003,12.117    c2.987,0.427,73.408,10.773,97.557,10.773s94.571-10.347,97.536-10.795C348.715,180.352,352.747,174.933,351.872,169.109z" fill="#FFFFFF"/>
	</g>
</g>
<g>
	<g>
		<path d="M351.829,192c-5.44,0.085-53.163,1.707-53.163,32c0,5.888,4.779,10.667,10.667,10.667S320,229.888,320,224    c0-5.589,17.6-10.411,32.171-10.667c5.888-0.107,10.581-4.949,10.475-10.837C362.56,196.608,357.461,191.936,351.829,192z" fill="#FFFFFF"/>
	</g>
</g>
<g>
	<g>
		<path d="M181.333,266.667h-42.667c-5.888,0-10.667,4.779-10.667,10.667S132.779,288,138.667,288h42.667    c5.888,0,10.667-4.779,10.667-10.667S187.221,266.667,181.333,266.667z" fill="#FFFFFF"/>
	</g>
</g>
<g>
	<g>
		<path d="M352,266.667h-42.667c-5.888,0-10.667,4.779-10.667,10.667S303.445,288,309.333,288H352    c5.888,0,10.667-4.779,10.667-10.667S357.888,266.667,352,266.667z" fill="#FFFFFF"/>
	</g>
</g>
<g>
	<g>
		<path d="M245.333,0C110.059,0,0,110.059,0,245.333s110.059,245.333,245.333,245.333s245.333-110.059,245.333-245.333    S380.608,0,245.333,0z M245.333,469.333c-123.52,0-224-100.48-224-224s100.48-224,224-224s224,100.48,224,224    S368.853,469.333,245.333,469.333z" fill="#FFFFFF"/>
	</g>
</g>
<g>
	<g>
		<path d="M201.536,368.555l-10.667-21.333c-1.813-3.605-5.504-5.888-9.536-5.888H160c-5.888,0-10.667,4.779-10.667,10.667    s4.779,10.667,10.667,10.667h14.741l5.333,10.667L174.741,384H160c-5.888,0-10.667,4.779-10.667,10.667    c0,5.888,4.779,10.667,10.667,10.667h21.333c4.032,0,7.723-2.283,9.536-5.909l10.667-21.333    C203.029,375.104,203.029,371.563,201.536,368.555z" fill="#FFFFFF"/>
	</g>
</g>
<g>
	<g>
		<path d="M330.667,384h-14.741l-5.333-10.667l5.333-10.667h14.741c5.888,0,10.667-4.779,10.667-10.667s-4.779-10.667-10.667-10.667    h-21.333c-4.032,0-7.723,2.283-9.536,5.909l-10.667,21.333c-1.493,2.987-1.493,6.528,0,9.536l10.667,21.333    c1.813,3.605,5.504,5.888,9.536,5.888h21.333c5.888,0,10.667-4.779,10.667-10.667C341.333,388.779,336.555,384,330.667,384z" fill="#FFFFFF"/>
	</g>
</g>
<g>
	<g>
		<path d="M298.667,362.667H192c-5.888,0-10.667,4.779-10.667,10.667c0,5.888,4.779,10.667,10.667,10.667h106.667    c5.888,0,10.667-4.779,10.667-10.667C309.333,367.445,304.555,362.667,298.667,362.667z" fill="#FFFFFF"/>
	</g>
</g>
<g>
	<g>
		<path d="M122.795,134.187c-4.053,0-7.552,1.067-10.347,3.157c-3.733,2.795-5.781,7.061-5.781,11.989    c0,16.661,12.928,28.181,14.4,29.44c2.005,1.707,4.459,2.56,6.891,2.56c2.987,0,5.952-1.28,8.064-3.691    c3.861-4.416,3.371-11.136-1.024-15.019c-0.875-0.789-2.411-2.368-3.797-4.437c3.221,1.515,6.379,3.435,7.936,4.971    c1.344,4.352,5.397,7.509,10.197,7.509c5.888,0,10.667-4.779,10.667-10.667C160,145.344,133.589,134.187,122.795,134.187z" fill="#FFFFFF"/>
	</g>
</g>
<g>
	<g>
		<path d="M378.219,137.344c-2.795-2.091-6.293-3.157-10.347-3.157c-10.795,0-37.205,11.157-37.205,25.813    c0,5.888,4.779,10.667,10.667,10.667c4.8,0,8.853-3.157,10.197-7.509c1.579-1.557,4.736-3.477,7.957-4.992    c-1.387,2.048-2.88,3.627-3.733,4.395c-4.48,3.84-5.013,10.56-1.195,15.04c2.112,2.453,5.099,3.733,8.107,3.733    c2.453,0,4.907-0.853,6.933-2.56c1.472-1.259,14.4-12.779,14.4-29.44C384,144.405,381.952,140.139,378.219,137.344z" fill="#FFFFFF"/>
	</g>
</g>
<g>
</g>
<g>
</g>
<g>
</g>
<g>
</g>
<g>
</g>
<g>
</g>
<g>
</g>
<g>
</g>
<g>
</g>
<g>
</g>
<g>
</g>
<g>
</g>
<g>
</g>
<g>
</g>
<g>
</g>
</svg>
