<?xml version="1.0" encoding="iso-8859-1"?>
<!-- Generator: Adobe Illustrator 19.0.0, SVG Export Plug-In . SVG Version: 6.00 Build 0)  -->
<svg version="1.1" id="Layer_1" xmlns="http://www.w3.org/2000/svg" xmlns:xlink="http://www.w3.org/1999/xlink" x="0px" y="0px"
	 viewBox="0 0 512 512" style="enable-background:new 0 0 512 512;" xml:space="preserve">
<g>
	<g>
		<g>
			<path d="M309.333,277.333H288c-5.896,0-10.667,4.771-10.667,10.667s4.771,10.667,10.667,10.667h10.667
				c0,5.896,4.771,10.667,10.667,10.667c5.896,0,10.667-4.771,10.667-10.667v-1.965c12.389-4.418,21.333-16.147,21.333-30.035
				c0-17.646-14.354-32-32-32c-5.885,0-10.667-4.781-10.667-10.667s4.781-10.667,10.667-10.667h21.333
				c5.896,0,10.667-4.771,10.667-10.667c0-5.896-4.771-10.667-10.667-10.667H320c0-5.896-4.771-10.667-10.667-10.667
				c-5.896,0-10.667,4.771-10.667,10.667v1.965c-12.389,4.418-21.333,16.147-21.333,30.035c0,17.646,14.354,32,32,32
				c5.885,0,10.667,4.781,10.667,10.667C320,272.552,315.219,277.333,309.333,277.333z"/>
			<path d="M468.246,375.398c0.393-2.017,1.087-3.98,1.087-6.065c0-36.865-27.823-84.51-35.146-96.406
				c-0.342-80.199-14.589-138.668-73.19-158.664c2.671-8.352,7.497-19.483,11.982-29.742c8.604-19.688,16.729-38.281,16.729-50.625
				C389.708,17.021,379.229,0,355.802,0c-15.688,0-21.521,7.406-24.698,13.76c-0.167-0.188-0.333-0.385-0.49-0.563
				C326.25,8.26,318.948,0,301.583,0c-19.531,0-32.208,17.01-38.354,30.948c-7.927,0.396-19.448,2.281-26.958,9.26
				c-4.781,4.448-7.313,10.302-7.313,16.927c0,11.083,7.969,23.885,16.396,37.427c4.191,6.736,8.589,13.952,11.397,20.06
				c-57.803,20.303-71.931,78.543-72.272,158.315c-3.508,5.714-11.79,20.014-19.457,37.198c-17.01,1.488-31.71,4.819-40.974,7.368
				c-3.212-11.169-12.328-20.174-24.413-22.587L12.76,277.542c-3.125-0.615-6.385,0.188-8.854,2.208C1.438,281.781,0,284.802,0,288
				v170.667c0,5.896,4.771,10.667,10.667,10.667H77.5c13.165,0,24.384-8.382,29.212-20.147C130.587,460.569,241.055,512,288,512
				c41.375,0,126.531-41.865,182.875-69.563c14.708-7.229,26.865-13.208,34.75-16.667C509.5,424.063,512,420.229,512,416
				C512,395.716,494.685,380.557,468.246,375.398z M103.917,327.802L88.052,438.844C87.313,444.063,82.771,448,77.5,448H21.333
				V301.01l74.115,14.823C101,316.948,104.719,322.198,103.917,327.802z M250.792,55.844c3.167-2.948,13.115-3.906,19.063-3.563
				c4.958,0.604,9.5-2.792,10.948-7.521c1.885-6.073,9.729-23.427,20.781-23.427c7.75,0,9.74,2.26,13.042,6
				c3.344,3.781,8.396,9.49,17.938,9.49c11.875,0,15.729-9.104,17.177-12.531c0.333-0.781,0.833-1.969,1.052-2.219
				c0.01-0.01,1.135-0.74,5.01-0.74c3.438,0,12.573,0,12.573,12.563c0,7.885-8.281,26.844-14.938,42.083
				c-5.275,12.055-10.21,23.53-13.138,33.204c-9.443-1.576-19.633-2.517-30.966-2.517c-11.622,0-22.074,0.965-31.711,2.62
				c-3.268-8.268-8.521-16.94-14.154-25.995C257.906,74.354,250.292,62.125,250.792,55.844z M204.104,281.771
				c1.104-1.719,1.698-3.729,1.698-5.771c0-109.271,27.094-148,103.531-148s103.531,38.729,103.531,148
				c0,2.052,0.594,4.063,1.698,5.781c0.333,0.521,33.438,52.302,33.438,87.552c0,1.372-0.27,2.701-0.792,4.033
				c-21.09,0.267-63.467,11.643-85.094,17.857c-2.902-30.612-42.124-41.448-82.656-49.681c-18.5-3.75-32.26-10.385-45.573-16.802
				c-14.388-6.948-28.284-13.241-45.332-14.767C196.451,293.793,204.007,281.917,204.104,281.771z M461.458,423.292
				C410.208,448.49,324.417,490.667,288,490.667c-38.802,0-140.688-45.427-176.667-62.927c-0.043-0.021-0.09-0.013-0.133-0.034
				l12.557-87.898c7.759-2.43,31.513-9.141,57.576-9.141c15.75,0,27.906,5.865,43.292,13.281
				c13.813,6.667,29.479,14.219,50.583,18.51c46.354,9.396,66.125,19.031,66.125,32.208c0,2.604-0.792,4.208-2.823,5.719
				c-6.75,5.073-33.24,13.594-132.813-15.948c-5.667-1.698-11.583,1.552-13.26,7.198s1.552,11.583,7.198,13.26
				c49.125,14.563,86.698,21.823,113.323,21.823c17.365,0,30.073-3.083,38.313-9.24c0.711-0.53,1.232-1.181,1.879-1.753
				c0.665-0.072,1.32,0.008,1.986-0.195C374,409.729,427.438,394.667,448,394.667c17.396,0,35.698,5.292,41.094,15.208
				C481.646,413.375,472.219,418.01,461.458,423.292z"/>
		</g>
	</g>
</g>
<g>
</g>
<g>
</g>
<g>
</g>
<g>
</g>
<g>
</g>
<g>
</g>
<g>
</g>
<g>
</g>
<g>
</g>
<g>
</g>
<g>
</g>
<g>
</g>
<g>
</g>
<g>
</g>
<g>
</g>
</svg>
