<?xml version="1.0" encoding="iso-8859-1"?>
<!-- Generator: Adobe Illustrator 19.0.0, SVG Export Plug-In . SVG Version: 6.00 Build 0)  -->
<svg version="1.1" id="Layer_1" xmlns="http://www.w3.org/2000/svg" xmlns:xlink="http://www.w3.org/1999/xlink" x="0px" y="0px"
	 viewBox="0 0 512.001 512.001" style="enable-background:new 0 0 512.001 512.001;" xml:space="preserve">
<g>
	<g>
		<path d="M321.582,334.292c-2.418-3.353-7.096-4.11-10.448-1.693c-16.121,11.625-35.187,17.771-55.133,17.771
			c-52.035,0-94.37-42.334-94.37-94.37c0-16.885,4.51-33.449,13.043-47.902c2.102-3.559,0.919-8.148-2.639-10.249
			c-3.558-2.1-8.148-0.919-10.249,2.639c-9.893,16.756-15.122,35.952-15.122,55.512c-0.002,60.289,49.047,109.338,109.336,109.338
			c23.109,0,45.201-7.123,63.888-20.598C323.242,342.322,323.999,337.645,321.582,334.292z"/>
	</g>
</g>
<g>
	<g>
		<path d="M256,146.662c-26.908,0-52.768,9.864-72.817,27.773c-3.082,2.754-3.349,7.485-0.596,10.567
			c2.756,3.083,7.486,3.349,10.568,0.596c17.302-15.456,39.62-23.969,62.844-23.969c52.035,0,94.37,42.334,94.37,94.37
			c0,20.823-6.646,40.564-19.219,57.088c-2.503,3.289-1.865,7.985,1.424,10.488c1.354,1.031,2.947,1.529,4.526,1.529
			c2.257,0,4.489-1.018,5.961-2.953C357.634,303,365.337,280.125,365.337,256C365.337,195.711,316.289,146.662,256,146.662z"/>
	</g>
</g>
<g>
	<g>
		<path d="M464.585,391.366c-3.398-2.357-8.06-1.514-10.416,1.882C409.073,458.234,334.991,497.033,256,497.033
			c-4.133,0-7.484,3.351-7.484,7.484c0,4.133,3.351,7.484,7.484,7.484c83.895,0,162.573-41.204,210.466-110.22
			C468.824,398.385,467.98,393.722,464.585,391.366z"/>
	</g>
</g>
<g>
	<g>
		<path d="M483.143,357.26c-3.722-1.799-8.196-0.24-9.995,3.483c-2.075,4.293-4.307,8.581-6.637,12.745
			c-2.018,3.607-0.729,8.167,2.878,10.185c1.157,0.647,2.411,0.954,3.647,0.954c2.622,0,5.167-1.381,6.538-3.832
			c2.475-4.424,4.847-8.98,7.051-13.54C488.424,363.533,486.865,359.059,483.143,357.26z"/>
	</g>
</g>
<g>
	<g>
		<path d="M461.88,103.823c-32.141-43.415-76.173-75.07-127.333-91.547c-3.935-1.268-8.151,0.896-9.418,4.83
			c-1.266,3.934,0.896,8.151,4.83,9.418c48.165,15.511,89.623,45.32,119.891,86.205c30.867,41.693,47.183,91.234,47.183,143.271
			c0,27.998-4.756,55.427-14.134,81.524c-0.244,0.68-0.491,1.357-0.741,2.033c-1.434,3.877,0.546,8.181,4.422,9.615
			c0.856,0.316,1.733,0.467,2.595,0.467c3.042,0,5.903-1.869,7.02-4.89c0.265-0.717,0.528-1.437,0.788-2.161
			C506.948,314.861,512,285.728,512,256C512.001,200.734,494.669,148.112,461.88,103.823z"/>
	</g>
</g>
<g>
	<g>
		<path d="M298.869,3.574C284.803,1.202,270.381,0,256.001,0c-4.133,0-7.484,3.351-7.484,7.484s3.351,7.484,7.484,7.484
			c13.548,0,27.133,1.133,40.378,3.366c0.421,0.071,0.84,0.105,1.253,0.105c3.586,0,6.755-2.586,7.371-6.241
			C305.691,8.123,302.944,4.261,298.869,3.574z"/>
	</g>
</g>
<g>
	<g>
		<path d="M123.397,457.311C55.503,412.495,14.969,337.239,14.969,256c0-34.562,7.158-67.923,21.273-99.158
			c13.641-30.182,33.034-56.833,57.643-79.212c3.057-2.781,3.282-7.514,0.502-10.572c-2.78-3.057-7.514-3.283-10.572-0.502
			c-26.13,23.763-46.725,52.066-61.213,84.123C7.606,183.863,0.001,219.299,0.001,256c0,86.283,43.047,166.209,115.15,213.802
			c1.269,0.838,2.7,1.239,4.116,1.239c2.43,0,4.814-1.182,6.253-3.362C127.797,464.23,126.847,459.587,123.397,457.311z"/>
	</g>
</g>
<g>
	<g>
		<path d="M332.592,458.29c-1.33-3.914-5.579-6.007-9.494-4.681c-4.535,1.541-9.186,2.94-13.821,4.16
			c-3.997,1.053-6.384,5.146-5.332,9.143c0.884,3.359,3.916,5.58,7.232,5.58c0.631,0,1.272-0.081,1.911-0.248
			c4.97-1.309,9.958-2.81,14.822-4.461C331.824,466.455,333.921,462.204,332.592,458.29z"/>
	</g>
</g>
<g>
	<g>
		<path d="M289.232,469.706c-0.488-4.103-4.207-7.037-8.315-6.546c-4.753,0.565-9.596,0.973-14.397,1.211
			c-4.128,0.205-7.309,3.718-7.104,7.845c0.199,4.002,3.505,7.113,7.468,7.113c0.125,0,0.25-0.003,0.377-0.009
			c5.142-0.255,10.332-0.692,15.424-1.298C286.789,477.534,289.721,473.811,289.232,469.706z"/>
	</g>
</g>
<g>
	<g>
		<path d="M407.678,410.127c-2.795-3.043-7.531-3.246-10.573-0.448c-3.535,3.247-7.227,6.411-10.97,9.402
			c-3.229,2.579-3.755,7.289-1.176,10.518c1.478,1.85,3.655,2.813,5.852,2.813c1.638,0,3.287-0.536,4.667-1.638
			c4.011-3.205,7.965-6.594,11.753-10.073C410.274,417.906,410.474,413.172,407.678,410.127z"/>
	</g>
</g>
<g>
	<g>
		<path d="M119.796,414.038c-3.633-3.131-7.202-6.432-10.61-9.808c-2.936-2.908-7.674-2.887-10.583,0.051
			c-2.909,2.937-2.886,7.675,0.051,10.583c3.651,3.617,7.475,7.153,11.366,10.507c1.414,1.22,3.153,1.817,4.885,1.817
			c2.101,0,4.19-0.88,5.67-2.595C123.275,421.464,122.925,416.738,119.796,414.038z"/>
	</g>
</g>
<g>
	<g>
		<path d="M372.641,438.121c-2.109-3.553-6.701-4.722-10.256-2.612c-4.125,2.451-8.386,4.785-12.664,6.939
			c-3.691,1.859-5.177,6.358-3.318,10.05c1.315,2.611,3.953,4.119,6.69,4.119c1.132,0,2.281-0.257,3.361-0.801
			c4.586-2.309,9.153-4.813,13.575-7.439C373.582,446.267,374.751,441.675,372.641,438.121z"/>
	</g>
</g>
<g>
	<g>
		<path d="M53.133,304.912c-1.119-4.654-2.088-9.415-2.882-14.148c-0.684-4.076-4.548-6.832-8.619-6.143
			c-4.076,0.682-6.826,4.542-6.143,8.619c0.851,5.074,1.89,10.177,3.089,15.169c0.824,3.432,3.891,5.738,7.27,5.738
			c0.579,0,1.167-0.068,1.754-0.209C51.622,312.973,54.098,308.931,53.133,304.912z"/>
	</g>
</g>
<g>
	<g>
		<path d="M90.365,116.973c-3.254-2.549-7.959-1.977-10.506,1.278c-3.168,4.045-6.237,8.255-9.119,12.511
			c-2.318,3.423-1.423,8.076,1.999,10.393c1.287,0.872,2.747,1.289,4.191,1.289c2.399,0,4.757-1.152,6.204-3.288
			c2.69-3.972,5.554-7.901,8.511-11.677C94.192,124.226,93.619,119.522,90.365,116.973z"/>
	</g>
</g>
<g>
	<g>
		<path d="M155.312,438.771c-4.2-2.319-8.372-4.816-12.402-7.42c-3.472-2.244-8.105-1.248-10.348,2.222
			c-2.244,3.472-1.248,8.105,2.223,10.348c4.32,2.792,8.792,5.467,13.292,7.953c1.147,0.634,2.388,0.934,3.611,0.934
			c2.637,0,5.193-1.396,6.558-3.868C160.243,445.322,158.93,440.77,155.312,438.771z"/>
	</g>
</g>
<g>
	<g>
		<path d="M90.12,382.551c-2.91-3.808-5.725-7.767-8.365-11.768c-2.278-3.451-6.919-4.4-10.369-2.123
			c-3.45,2.277-4.4,6.919-2.122,10.369c2.829,4.287,5.844,8.53,8.963,12.61c1.474,1.928,3.699,2.941,5.952,2.941
			c1.585,0,3.182-0.501,4.538-1.538C92.001,390.531,92.628,385.835,90.12,382.551z"/>
	</g>
</g>
<g>
	<g>
		<path d="M237.642,463.835c-4.78-0.417-9.602-1.005-14.335-1.749c-4.082-0.647-7.914,2.146-8.556,6.23
			c-0.643,4.083,2.146,7.914,6.23,8.556c5.072,0.798,10.24,1.429,15.362,1.875c0.221,0.02,0.44,0.029,0.659,0.029
			c3.84,0,7.108-2.938,7.447-6.835C244.807,467.823,241.76,464.195,237.642,463.835z"/>
	</g>
</g>
<g>
	<g>
		<path d="M195.178,455.628c-4.592-1.397-9.193-2.976-13.679-4.69c-3.859-1.474-8.186,0.456-9.663,4.318
			c-1.477,3.861,0.457,8.186,4.318,9.663c4.808,1.839,9.743,3.53,14.667,5.029c0.726,0.221,1.46,0.326,2.181,0.326
			c3.207,0,6.175-2.08,7.157-5.307C201.363,461.012,199.133,456.831,195.178,455.628z"/>
	</g>
</g>
<g>
	<g>
		<path d="M48.29,195.646c-4.01-1.012-8.078,1.415-9.089,5.423c-1.259,4.985-2.359,10.08-3.268,15.143
			c-0.73,4.068,1.975,7.959,6.043,8.689c0.448,0.081,0.892,0.12,1.332,0.12c3.553,0,6.707-2.542,7.357-6.162
			c0.849-4.723,1.874-9.476,3.048-14.126C54.727,200.728,52.298,196.658,48.29,195.646z"/>
	</g>
</g>
<g>
	<g>
		<path d="M47.536,247.575c0.165-4.13-3.051-7.611-7.181-7.775c-4.13-0.16-7.611,3.049-7.775,7.18
			c-0.119,2.988-0.179,6.022-0.179,9.019c0,2.137,0.03,4.309,0.091,6.455c0.116,4.059,3.443,7.271,7.477,7.271
			c0.072,0,0.145-0.001,0.217-0.003c4.131-0.118,7.385-3.562,7.268-7.693c-0.057-2.004-0.086-4.031-0.086-6.027
			C47.368,253.2,47.424,250.365,47.536,247.575z"/>
	</g>
</g>
<g>
	<g>
		<path d="M67.563,345.662c-2.061-4.323-3.995-8.773-5.75-13.227c-1.516-3.846-5.862-5.735-9.706-4.22
			c-3.846,1.515-5.735,5.861-4.22,9.706c1.881,4.776,3.956,9.547,6.165,14.181c1.283,2.692,3.966,4.266,6.76,4.266
			c1.08,0,2.175-0.234,3.215-0.73C67.759,353.859,69.341,349.393,67.563,345.662z"/>
	</g>
</g>
<g>
	<g>
		<path d="M65.217,154.11c-3.712-1.825-8.194-0.293-10.018,3.417c-2.267,4.614-4.402,9.369-6.342,14.132
			c-1.56,3.828,0.278,8.195,4.105,9.755c0.926,0.376,1.882,0.555,2.823,0.555c2.952,0,5.75-1.759,6.933-4.661
			c1.81-4.441,3.801-8.876,5.915-13.181C70.457,160.418,68.927,155.933,65.217,154.11z"/>
	</g>
</g>
<g>
	<g>
		<path d="M456.1,156.107c-2.295-4.587-4.783-9.158-7.394-13.585c-2.101-3.56-6.691-4.743-10.249-2.642
			c-3.559,2.101-4.743,6.69-2.642,10.249c2.437,4.13,4.758,8.394,6.898,12.674c1.311,2.622,3.955,4.138,6.7,4.138
			c1.126,0,2.267-0.254,3.342-0.792C456.451,164.3,457.949,159.804,456.1,156.107z"/>
	</g>
</g>
<g>
	<g>
		<path d="M317.138,40.863c-4.941-1.402-9.999-2.647-15.031-3.702c-4.045-0.847-8.013,1.743-8.861,5.789s1.743,8.012,5.789,8.86
			c4.694,0.984,9.41,2.146,14.019,3.454c0.683,0.194,1.369,0.286,2.046,0.286c3.262,0,6.262-2.15,7.197-5.444
			C323.423,46.129,321.114,41.991,317.138,40.863z"/>
	</g>
</g>
<g>
	<g>
		<path d="M271.461,32.927c-5.112-0.349-10.313-0.527-15.46-0.527c-4.133,0-7.484,3.351-7.484,7.484s3.351,7.484,7.484,7.484
			c4.808,0,9.666,0.166,14.439,0.492c0.174,0.012,0.346,0.018,0.518,0.018c3.901,0,7.189-3.024,7.459-6.974
			C278.699,36.78,275.585,33.209,271.461,32.927z"/>
	</g>
</g>
<g>
	<g>
		<path d="M360.215,58.121c-4.552-2.402-9.245-4.674-13.947-6.75c-3.782-1.671-8.2,0.041-9.87,3.822
			c-1.67,3.781,0.041,8.199,3.822,9.87c4.386,1.938,8.762,4.057,13.009,6.298c1.115,0.588,2.309,0.866,3.487,0.866
			c2.686,0,5.284-1.451,6.626-3.992C365.271,64.578,363.871,60.051,360.215,58.121z"/>
	</g>
</g>
<g>
	<g>
		<path d="M431.184,117.035c-3.192-4.019-6.568-7.983-10.035-11.779c-2.788-3.052-7.522-3.266-10.573-0.479
			c-3.052,2.787-3.266,7.522-0.479,10.573c3.237,3.544,6.388,7.242,9.367,10.993c1.477,1.861,3.66,2.83,5.865,2.83
			c1.631,0,3.273-0.531,4.649-1.625C433.215,124.979,433.755,120.272,431.184,117.035z"/>
	</g>
</g>
<g>
	<g>
		<path d="M478.096,229.932c-0.476-4.106-4.188-7.052-8.297-6.57c-4.105,0.476-7.047,4.191-6.57,8.296
			c0.553,4.758,0.946,9.6,1.17,14.395c0.188,4.009,3.497,7.134,7.47,7.134c0.118,0,0.237-0.002,0.355-0.008
			c4.129-0.194,7.319-3.697,7.126-7.825C479.11,240.218,478.687,235.029,478.096,229.932z"/>
	</g>
</g>
<g>
	<g>
		<path d="M398.766,83.902c-3.955-3.283-8.074-6.471-12.244-9.475c-3.354-2.415-8.032-1.654-10.447,1.699
			c-2.416,3.354-1.654,8.031,1.699,10.447c3.893,2.804,7.737,5.78,11.429,8.845c1.398,1.16,3.092,1.726,4.778,1.726
			c2.148,0,4.282-0.92,5.762-2.703C402.383,91.261,401.946,86.543,398.766,83.902z"/>
	</g>
</g>
<g>
	<g>
		<path d="M472.404,199.518c-1.296-4.976-2.783-9.968-4.421-14.836c-1.318-3.918-5.564-6.026-9.48-4.708
			c-3.918,1.317-6.025,5.561-4.708,9.479c1.527,4.54,2.914,9.195,4.122,13.837c0.876,3.368,3.912,5.6,7.237,5.6
			c0.624,0,1.258-0.079,1.891-0.243C471.046,207.605,473.445,203.518,472.404,199.518z"/>
	</g>
</g>
<g>
	<g>
		<path d="M436.225,221.679l-39.109-5.551c-3.117-11.061-7.52-21.691-13.137-31.714l23.729-31.579
			c2.239-2.98,1.944-7.152-0.691-9.788l-38.059-38.059c-2.636-2.635-6.808-2.93-9.788-0.691l-31.58,23.729
			c-10.023-5.617-20.652-10.021-31.714-13.138l-5.551-39.109c-0.524-3.69-3.683-6.432-7.41-6.432H229.09
			c-3.727,0-6.886,2.742-7.41,6.432l-5.551,39.109c-11.061,3.117-21.69,7.52-31.714,13.138l-31.58-23.729
			c-2.979-2.239-7.153-1.944-9.788,0.691l-38.059,38.059c-2.635,2.635-2.931,6.808-0.692,9.788l23.73,31.579
			c-5.617,10.023-10.019,20.652-13.138,31.714l-39.109,5.551c-3.69,0.524-6.432,3.683-6.432,7.41v53.824
			c0,3.727,2.742,6.886,6.432,7.41l39.109,5.551c3.118,11.063,7.521,21.691,13.138,31.714l-23.729,31.58
			c-2.239,2.98-1.944,7.152,0.691,9.788l38.059,38.059c2.635,2.636,6.808,2.929,9.788,0.692l31.58-23.729
			c10.023,5.617,20.652,10.019,31.714,13.138l5.551,39.109c0.524,3.69,3.683,6.432,7.41,6.432h53.824
			c3.727,0,6.886-2.742,7.41-6.432l5.551-39.109c11.062-3.118,21.691-7.521,31.714-13.138l31.58,23.729
			c2.98,2.239,7.152,1.944,9.788-0.692l38.059-38.059c2.635-2.635,2.931-6.808,0.691-9.788l-23.729-31.58
			c5.617-10.023,10.019-20.652,13.138-31.714l39.108-5.551c3.69-0.524,6.432-3.683,6.432-7.41v-53.824
			C442.658,225.362,439.916,222.202,436.225,221.679z M427.686,276.413l-37.596,5.338c-3.029,0.43-5.491,2.659-6.218,5.631
			c-3.181,13.007-8.315,25.403-15.261,36.841c-1.588,2.615-1.424,5.934,0.414,8.38l22.812,30.36l-28.872,28.872l-30.36-22.812
			c-2.448-1.838-5.766-2.002-8.38-0.414c-11.438,6.945-23.834,12.08-36.841,15.261c-2.972,0.726-5.202,3.189-5.631,6.218
			l-5.338,37.597h-40.829l-5.337-37.597c-0.43-3.029-2.66-5.491-5.632-6.218c-13.007-3.181-25.403-8.315-36.841-15.261
			c-2.616-1.589-5.933-1.424-8.38,0.414l-30.36,22.812l-28.872-28.872l22.812-30.36c1.838-2.446,2.002-5.765,0.414-8.38
			c-6.945-11.438-12.08-23.834-15.261-36.841c-0.726-2.972-3.189-5.202-6.218-5.631l-37.596-5.338v-40.828l37.596-5.338
			c3.029-0.43,5.49-2.659,6.218-5.631c3.181-13.007,8.316-25.401,15.261-36.841c1.588-2.615,1.424-5.934-0.414-8.38l-22.812-30.359
			l28.872-28.873l30.36,22.812c2.446,1.837,5.764,2.001,8.38,0.414c11.44-6.946,23.835-12.081,36.84-15.261
			c2.973-0.726,5.202-3.189,5.633-6.218l5.337-37.597h40.829l5.338,37.596c0.43,3.029,2.659,5.491,5.631,6.218
			c13.006,3.181,25.401,8.316,36.841,15.261c2.616,1.589,5.934,1.424,8.38-0.414l30.36-22.812l28.872,28.872l-22.812,30.359
			c-1.838,2.446-2.002,5.765-0.414,8.38c6.945,11.439,12.08,23.835,15.261,36.841c0.726,2.972,3.189,5.202,6.218,5.631l37.596,5.338
			V276.413z"/>
	</g>
</g>
<g>
	<g>
		<path d="M263.508,232.015l0.163-42.603c0.016-4.133-3.322-7.497-7.455-7.513c-0.01,0-0.02,0-0.029,0
			c-4.119,0-7.467,3.332-7.484,7.455l-0.164,42.644c-10.226,3.185-17.672,12.741-17.672,24.002c0,5.214,1.597,10.06,4.325,14.08
			l-19.743,21.495c-2.796,3.043-2.595,7.778,0.448,10.574c1.437,1.32,3.251,1.973,5.061,1.973c2.022,0,4.037-0.814,5.513-2.421
			l20.457-22.269c2.816,1.094,5.873,1.701,9.072,1.701c13.858,0,25.132-11.274,25.132-25.132
			C281.132,244.758,273.71,235.217,263.508,232.015z M256.001,266.164c-5.604,0-10.164-4.559-10.164-10.164
			c0-5.604,4.56-10.164,10.164-10.164c5.605,0,10.164,4.559,10.164,10.164S261.606,266.164,256.001,266.164z"/>
	</g>
</g>
<g>
</g>
<g>
</g>
<g>
</g>
<g>
</g>
<g>
</g>
<g>
</g>
<g>
</g>
<g>
</g>
<g>
</g>
<g>
</g>
<g>
</g>
<g>
</g>
<g>
</g>
<g>
</g>
<g>
</g>
</svg>
