<?xml version="1.0" encoding="iso-8859-1"?>
<!-- Generator: Adobe Illustrator 19.0.0, SVG Export Plug-In . SVG Version: 6.00 Build 0)  -->
<svg version="1.1" id="Capa_1" xmlns="http://www.w3.org/2000/svg" xmlns:xlink="http://www.w3.org/1999/xlink" x="0px" y="0px"
	 viewBox="0 0 496 496" style="enable-background:new 0 0 496 496;" xml:space="preserve">
<g>
	<g>
		<g>
			<rect x="324" y="96" width="16" height="16"/>
			<path d="M443.16,164.424l-0.896,0.448c-3.104-9.16-10.368-16.312-19.6-19.272C431.024,133.832,436,119.496,436,104V72
				c0-39.696-32.304-72-72-72c-28.2,0-52.592,16.336-64.4,40H264c-11.024,0-20,8.976-20,20s8.976,20,20,20h28v24
				c0,39.696,32.304,72,72,72c1.664,0,3.296-0.136,4.936-0.248l-25.344,25.344l-70.848,25.76
				c-10.56,3.84-18.12,13.056-20.152,23.856C230.008,234.008,202.184,224,172,224c-74.992,0-136,61.008-136,136s61.008,136,136,136
				s136-61.008,136-136c0-26.456-7.712-51.088-20.832-72h0.304c4.032,0,7.968-0.76,11.712-2.256L340,269.416v173.64l-19.384,9.688
				C312.832,456.64,308,464.472,308,473.168C308,485.76,318.24,496,330.832,496h40H388h72V235.776
				C460,211.136,454.176,186.456,443.16,164.424z M292.472,64H264c-2.208,0-4-1.792-4-4s1.792-4,4-4h29.856
				C293.256,58.624,292.776,61.28,292.472,64z M291.56,351.432L282.4,339.2l-12.8,9.6l21.064,28.088
				c-3.304,23.344-13.296,44.52-28.048,61.544l2.152-15.072l-15.832-2.264l-4.96,34.696c-17.928,13.504-39.696,22.088-63.4,23.776
				L192.8,470.4l-9.6-12.8l-28.088,21.064c-23.336-3.312-44.52-13.296-61.536-28.056l15.072,2.152l2.264-15.832l-34.696-4.96
				c-13.504-17.928-22.088-39.696-23.776-63.4L61.6,380.8l12.8-9.6l-21.064-28.088c3.312-23.336,13.296-44.52,28.056-61.536
				l-2.152,15.072l15.832,2.264l4.96-34.696c17.928-13.504,39.696-22.088,63.4-23.776L151.2,249.6l9.6,12.8l28.088-21.064
				c23.336,3.312,44.52,13.296,61.536,28.056l-15.072-2.152l-2.264,15.832l34.696,4.96
				C281.288,305.96,289.872,327.728,291.56,351.432z M293.224,270.896c-1.832,0.728-3.768,1.104-5.752,1.104h-3.952
				c-8.56,0-15.52-6.968-15.52-15.52c0-6.504,4.104-12.368,10.216-14.584l7.96-2.896l11.968,29.928L293.224,270.896z M372,96.4V80
				h48v24c0,17.816-8.392,33.688-21.408,43.952c-1.816,1.008-3.52,2.192-5.12,3.576c-6.416,3.992-13.68,6.712-21.472,7.832V135.6
				c9.12-1.856,16-9.936,16-19.6S381.12,98.264,372,96.4z M364,16c28.152,0,51.456,20.904,55.36,48H308.64
				C312.544,36.904,335.848,16,364,16z M368,120h-12v39.36c-27.096-3.904-48-27.208-48-55.36V80h48v32h12c2.208,0,4,1.792,4,4
				S370.208,120,368,120z M313.008,262.984l-11.784-29.456l51.176-18.616l50.288-50.288c1.632-1.04,3.2-2.16,4.736-3.328
				c1.856-0.832,3.864-1.296,5.944-1.296c8.072,0,14.632,6.56,14.632,14.632c0,3.904-1.52,7.576-4.288,10.344l-56.208,56.208
				L313.008,262.984z M348,473.168c0,2.392,0.472,4.664,1.16,6.832h-18.328c-3.768,0-6.832-3.064-6.832-6.832
				c0-2.608,1.448-4.952,3.776-6.112L349.888,456h5.992C350.96,460.272,348,466.432,348,473.168z M444,480h-56h-17.168
				c-3.768,0-6.832-3.064-6.832-6.832c0-2.608,1.448-4.952,3.776-6.112L389.888,456H444V480z M444,440h-48V320h-16v120h-24V263.016
				l20.496-8.2l58.528-58.528c0.936-0.936,1.688-1.992,2.48-3.016c4.256,13.744,6.496,28.12,6.496,42.504V440z"/>
			<path d="M172,272c-48.52,0-88,39.48-88,88c0,48.52,39.48,88,88,88s88-39.48,88-88C260,311.48,220.52,272,172,272z M172,432
				c-39.696,0-72-32.304-72-72s32.304-72,72-72s72,32.304,72,72S211.696,432,172,432z"/>
			<path d="M172,296c-35.288,0-64,28.712-64,64c0,35.288,28.712,64,64,64c35.288,0,64-28.712,64-64C236,324.712,207.288,296,172,296
				z M180,312.72c11.576,1.96,21.776,8.024,28.968,16.696l-21.48,12.4c-2.2-1.88-4.712-3.352-7.488-4.344V312.72z M164,312.72
				v24.752c-2.776,0.992-5.288,2.472-7.488,4.344l-21.48-12.4C142.224,320.744,152.424,314.68,164,312.72z M124,360
				c0-5.88,1.112-11.496,3.056-16.712l21.384,12.344c-0.264,1.424-0.44,2.872-0.44,4.368c0,1.496,0.176,2.944,0.44,4.36
				l-21.384,12.344C125.112,371.496,124,365.88,124,360z M164,407.28c-11.576-1.96-21.776-8.024-28.968-16.696l21.48-12.4
				c2.2,1.88,4.712,3.352,7.488,4.344V407.28z M172,368c-4.408,0-8-3.592-8-8c0-4.408,3.592-8,8-8s8,3.592,8,8
				C180,364.408,176.408,368,172,368z M180,407.28v-24.752c2.776-0.992,5.288-2.472,7.488-4.344l21.48,12.4
				C201.776,399.256,191.576,405.32,180,407.28z M216.944,376.712l-21.384-12.344c0.264-1.424,0.44-2.872,0.44-4.368
				c0-1.496-0.176-2.944-0.44-4.36l21.384-12.344C218.888,348.504,220,354.12,220,360S218.888,371.496,216.944,376.712z"/>
		</g>
	</g>
</g>
<g>
</g>
<g>
</g>
<g>
</g>
<g>
</g>
<g>
</g>
<g>
</g>
<g>
</g>
<g>
</g>
<g>
</g>
<g>
</g>
<g>
</g>
<g>
</g>
<g>
</g>
<g>
</g>
<g>
</g>
</svg>
